<svg xmlns="http://www.w3.org/2000/svg" xmlns:xlink="http://www.w3.org/1999/xlink" xmlns:lucid="lucid" width="1402.47" height="1300.15"><g transform="translate(-12.417455599813355 -34.091149176239185)" lucid:page-tab-id="0_0"><path d="M572.74 941.48a6 6 0 0 1 6-6h828.65a6 6 0 0 1 6 6v385.26a6 6 0 0 1-6 6H578.73a6 6 0 0 1-6-6z" fill-opacity="0"/><path d="M609.43 935.48h30.7m15.33 0h30.7m15.34 0h30.7m15.34 0h30.7m15.33 0h30.7m15.34 0h30.7m15.35 0h30.7m15.33 0h30.7m15.34 0h30.7m15.33 0h30.7m15.34 0h30.68m15.35 0h30.7m15.33 0h30.7m15.34 0h30.7m15.33 0h30.7m15.34 0h30.7m15.34 0h30.7m15.34 0h15.35l.93.07.9.22.88.36.8.5.73.6.6.72.5.8.36.88.2.9.1.95v14.27m0 14.27v28.53m0 14.27v28.54m0 14.27v28.54m0 14.27v28.53m0 14.27v28.54m0 14.27v28.54m0 14.26v28.53m0 14.26v28.54m0 14.27v14.27l-.1.94-.2.9-.37.88-.5.8-.6.72-.72.6-.8.5-.86.37-.9.2-.95.1h-15.36m-15.34 0H1346m-15.34 0h-30.7m-15.34 0h-30.7m-15.33 0h-30.7m-15.35 0h-30.7m-15.33 0h-30.7m-15.34 0h-30.7m-15.34 0h-30.7m-15.33 0h-30.68m-15.35 0h-30.7m-15.33 0h-30.7m-15.34 0h-30.7m-15.34 0h-30.7m-15.33 0h-30.7m-15.34 0h-30.7m-15.35 0h-30.7m-15.33 0h-30.7m-15.34 0h-15.34l-.94-.1-.92-.2-.87-.37-.8-.5-.7-.6-.62-.7-.5-.82-.35-.87-.22-.92-.06-.94v-14.27m0-14.27v-28.54m0-14.27v-28.54m0-14.27v-28.55m0-14.27v-28.54m0-14.27v-28.53m0-14.27v-28.54m0-14.27v-28.54m0-14.27v-28.53m0-14.27v-14.27l.07-.94.23-.9.36-.88.48-.8.62-.72.7-.6.8-.5.88-.37.92-.22.94-.07h15.34" stroke="#3a414a" stroke-width="3" fill="none"/><path d="M572.74 528.08a6 6 0 0 1 6-6h828.65a6 6 0 0 1 6 6v385.25a6 6 0 0 1-6 6H578.73a6 6 0 0 1-6-6z" fill-opacity="0"/><path d="M609.43 522.08h30.7m15.33 0h30.7m15.34 0h30.7m15.34 0h30.7m15.33 0h30.7m15.34 0h30.7m15.35 0h30.7m15.33 0h30.7m15.34 0h30.7m15.33 0h30.7m15.34 0h30.68m15.35 0h30.7m15.33 0h30.7m15.34 0h30.7m15.33 0h30.7m15.34 0h30.7m15.34 0h30.7m15.34 0h15.35l.93.07.9.22.88.36.8.5.73.6.6.72.5.8.36.87.2.92.1.94v14.26m0 14.27v28.55m0 14.27v28.54m0 14.26v28.54m0 14.27v28.54m0 14.27v28.54m0 14.26v28.54m0 14.27V842m0 14.26v28.54m0 14.26v14.27l-.1.94-.2.92-.37.86-.5.8-.6.72-.72.6-.8.5-.86.36-.9.22-.95.07h-15.36m-15.34 0H1346m-15.34 0h-30.7m-15.34 0h-30.7m-15.33 0h-30.7m-15.35 0h-30.7m-15.33 0h-30.7m-15.34 0h-30.7m-15.34 0h-30.7m-15.33 0h-30.68m-15.35 0h-30.7m-15.33 0h-30.7m-15.34 0h-30.7m-15.34 0h-30.7m-15.33 0h-30.7m-15.34 0h-30.7m-15.35 0h-30.7m-15.33 0h-30.7m-15.34 0h-15.34l-.94-.07-.92-.22-.87-.36-.8-.5-.7-.6-.62-.72-.5-.8-.35-.87-.22-.93-.06-.94v-14.27m0-14.26v-28.54m0-14.27v-28.55m0-14.27v-28.53m0-14.27v-28.54m0-14.27v-28.54m0-14.27v-28.53m0-14.27v-28.54m0-14.27V556.6m0-14.26v-14.26l.07-.94.23-.92.36-.87.48-.8.62-.72.7-.6.8-.5.88-.36.92-.22.94-.07h15.34" stroke="#3a414a" stroke-width="3" fill="none"/><path d="M572.74 114.67a6 6 0 0 1 6-6h828.65a6 6 0 0 1 6 6v385.26a6 6 0 0 1-6 6H578.73a6 6 0 0 1-6-6z" fill-opacity="0"/><path d="M609.43 108.67h30.7m15.33 0h30.7m15.34 0h30.7m15.34 0h30.7m15.33 0h30.7m15.34 0h30.7m15.35 0h30.7m15.33 0h30.7m15.34 0h30.7m15.33 0h30.7m15.34 0h30.68m15.35 0h30.7m15.33 0h30.7m15.34 0h30.7m15.33 0h30.7m15.34 0h30.7m15.34 0h30.7m15.34 0h15.35l.93.07.9.22.88.36.8.5.73.6.6.72.5.8.36.88.2.9.1.95v14.27m0 14.27v28.55m0 14.26v28.55m0 14.27v28.54m0 14.27v28.53m0 14.27v28.54m0 14.27v28.54m0 14.27v28.53m0 14.27v28.54m0 14.26v14.27l-.1.94-.2.9-.37.88-.5.8-.6.72-.72.6-.8.5-.86.37-.9.2-.95.1h-15.36m-15.34 0H1346m-15.34 0h-30.7m-15.34 0h-30.7m-15.33 0h-30.7m-15.35 0h-30.7m-15.33 0h-30.7m-15.34 0h-30.7m-15.34 0h-30.7m-15.33 0h-30.68m-15.35 0h-30.7m-15.33 0h-30.7m-15.34 0h-30.7m-15.34 0h-30.7m-15.33 0h-30.7m-15.34 0h-30.7m-15.35 0h-30.7m-15.33 0h-30.7m-15.34 0h-15.34l-.94-.1-.92-.2-.87-.37-.8-.5-.7-.6-.62-.72-.5-.8-.35-.87-.22-.9-.06-.95v-14.27m0-14.27v-28.55m0-14.27v-28.53m0-14.27v-28.54m0-14.27v-28.54m0-14.27v-28.53m0-14.27v-28.54m0-14.27V186m0-14.25V143.2m0-14.26v-14.27l.07-.94.23-.92.36-.85.48-.8.62-.72.7-.62.8-.48.88-.36.92-.22.94-.07h15.34" stroke="#3a414a" stroke-width="3" fill="none"/><path d="M636.4 143.3a6 6 0 0 1 6-6h241.34a6 6 0 0 1 6 6v328a6 6 0 0 1-6 6H642.4a6 6 0 0 1-6-6z" stroke="#3a414a" stroke-width="3" fill="#c3f7c8"/><use xlink:href="#a" transform="matrix(1,0,0,1,649.0719646698229,154.29884142501746) translate(72.64722222222224 20.8)"/><use xlink:href="#b" transform="matrix(1,0,0,1,649.0719646698229,154.29884142501746) translate(141.90833333333333 20.8)"/><path d="M1247.57 312.38a9.57 9.57 0 0 1 0-10.17l19.96-31.82a10.84 10.84 0 0 1 9.2-5.08h40.66a10.84 10.84 0 0 1 9.17 5.08l19.96 31.83a9.57 9.57 0 0 1 0 10.18l-19.96 31.83a10.84 10.84 0 0 1-9.18 5.1h-40.68a10.84 10.84 0 0 1-9.2-5.1z" stroke="#3a414a" stroke-width="3" fill="#9391ff"/><use xlink:href="#c" transform="matrix(1,0,0,1,1249.6528984333347,269.4988414250175) translate(13.560555555555561 42.175)"/><use xlink:href="#b" transform="matrix(1,0,0,1,1249.6528984333347,269.4988414250175) translate(67.005 42.175)"/><path d="M686.14 277.63a6 6 0 0 1 6-6H834a6 6 0 0 1 6 6v59.34a6 6 0 0 1-6 6H692.15a6 6 0 0 1-6-6z" stroke="#3a414a" stroke-width="3" fill="#ffdda6"/><use xlink:href="#d" transform="matrix(1,0,0,1,693.8314295744381,275.19641151715723) translate(5.294444444444451 37.05)"/><path d="M1024.54 308.77H843v-2.95h181.54zm208.96 0h-171.92v-2.95h171.92z" stroke="#3a414a" stroke-width=".05" fill="#3a414a"/><path d="M843.05 308.77h-1.54v-2.95h1.55z" fill="#3a414a"/><path stroke="#3a414a" stroke-width=".05" fill="#3a414a"/><path d="M1241.66 307.3l-12.9 7.63v-15.27z" fill="#3a414a"/><path d="M1244.56 307.3l-17.28 10.22v-20.44zm-14.33 5.05l8.54-5.05-8.54-5.05z" stroke="#3a414a" stroke-width=".05" fill="#3a414a"/><use xlink:href="#e" transform="matrix(1,0,0,1,1024.5420753540002,291.2988414250175) translate(0 21.333333333333336)"/><path d="M636.4 970.1a6 6 0 0 1 6-6h241.34a6 6 0 0 1 6 6v328a6 6 0 0 1-6 6H642.4a6 6 0 0 1-6-6z" stroke="#3a414a" stroke-width="3" fill="#c3f7c8"/><use xlink:href="#a" transform="matrix(1,0,0,1,649.0719646698232,981.1089976236835) translate(72.64722222222224 20.8)"/><use xlink:href="#f" transform="matrix(1,0,0,1,649.0719646698232,981.1089976236835) translate(141.90833333333333 20.8)"/><path d="M1247.57 1039.2a9.57 9.57 0 0 1 0-10.17l19.96-31.84a10.84 10.84 0 0 1 9.2-5.1h40.66a10.84 10.84 0 0 1 9.17 5.1l19.96 31.83a9.57 9.57 0 0 1 0 10.16l-19.96 31.83a10.84 10.84 0 0 1-9.18 5.08h-40.68a10.84 10.84 0 0 1-9.2-5.07z" stroke="#3a414a" stroke-width="3" fill="#9391ff"/><use xlink:href="#c" transform="matrix(1,0,0,1,1249.6528984333343,996.3089976236836) translate(13.560555555555561 42.175)"/><use xlink:href="#g" transform="matrix(1,0,0,1,1249.6528984333343,996.3089976236836) translate(67.005 42.175)"/><path d="M1247.57 1239.2a9.57 9.57 0 0 1 0-10.17l19.96-31.84a10.84 10.84 0 0 1 9.2-5.1h40.66a10.84 10.84 0 0 1 9.17 5.1l19.96 31.83a9.57 9.57 0 0 1 0 10.16l-19.96 31.83a10.84 10.84 0 0 1-9.18 5.08h-40.68a10.84 10.84 0 0 1-9.2-5.07z" stroke="#3a414a" stroke-width="3" fill="#9391ff"/><use xlink:href="#c" transform="matrix(1,0,0,1,1249.6528984333343,1196.3089976236836) translate(13.560555555555561 42.175)"/><use xlink:href="#h" transform="matrix(1,0,0,1,1249.6528984333343,1196.3089976236836) translate(67.005 42.175)"/><path d="M1247.57 1139.2a9.57 9.57 0 0 1 0-10.17l19.96-31.84a10.84 10.84 0 0 1 9.2-5.1h40.66a10.84 10.84 0 0 1 9.17 5.1l19.96 31.83a9.57 9.57 0 0 1 0 10.16l-19.96 31.83a10.84 10.84 0 0 1-9.18 5.08h-40.68a10.84 10.84 0 0 1-9.2-5.07z" stroke="#3a414a" stroke-width="3" fill="#9391ff"/><use xlink:href="#c" transform="matrix(1,0,0,1,1249.6528984333343,1096.3089976236836) translate(13.560555555555561 42.175)"/><use xlink:href="#i" transform="matrix(1,0,0,1,1249.6528984333343,1096.3089976236836) translate(67.005 42.175)"/><path d="M686.14 1104.44a6 6 0 0 1 6-6H834a6 6 0 0 1 6 6v59.34a6 6 0 0 1-6 6H692.15a6 6 0 0 1-6-6z" stroke="#3a414a" stroke-width="3" fill="#ffdda6"/><use xlink:href="#d" transform="matrix(1,0,0,1,693.8314295744383,1102.0065677158232) translate(5.294444444444451 37.05)"/><path d="M1024.68 1094.72l-16.8 7.86-16.84 7.1-14.45 5.38-13.74 4.46-13.7 3.83-14.17 3.32-15.04 2.86-16.3 2.4-18.07 1.9-20.45 1.27-22.1.45-.07-2.95 22.05-.45 20.32-1.27 17.94-1.88 16.17-2.38 14.9-2.84 14.05-3.3 13.6-3.8 13.6-4.4 14.33-5.35 16.72-7.04 18-8.44zm208.85-58.9l-12.44.24-20.33 1.27-17.94 1.88-16.2 2.4-14.9 2.84-14.04 3.3-13.6 3.78-13.6 4.43-14.3 5.33-34.48 16.12v-3.26l33.33-15.6 14.48-5.38 13.72-4.46 13.7-3.83 14.18-3.32 15.02-2.86 16.3-2.4 18.08-1.9 20.44-1.28 12.5-.26z" stroke="#3a414a" stroke-width=".05" fill="#3a414a"/><path d="M843.08 1135.55l-1.57.03v-2.95l1.52-.03z" fill="#3a414a"/><path stroke="#3a414a" stroke-width=".05" fill="#3a414a"/><path d="M1241.66 1034.17l-12.75 7.9-.3-15.27z" fill="#3a414a"/><path d="M1244.56 1034.1l-17.07 10.58-.43-20.44zm-14.23 5.35l8.44-5.22-8.64-4.88z" stroke="#3a414a" stroke-width=".05" fill="#3a414a"/><use xlink:href="#j" transform="matrix(1,0,0,1,1024.684695210022,1068.4293054779175) translate(0 21.333333333333336)"/><path d="M1118.67 1135.58H843v-2.95h275.67zm114.83 0h-77.8v-2.95h77.8z" stroke="#3a414a" stroke-width=".05" fill="#3a414a"/><path d="M843.05 1135.58h-1.54v-2.95h1.55z" fill="#3a414a"/><path stroke="#3a414a" stroke-width=".05" fill="#3a414a"/><path d="M1241.66 1134.1l-12.9 7.64v-15.27z" fill="#3a414a"/><path d="M1244.56 1134.1l-17.28 10.23v-20.44zm-14.33 5.06l8.54-5.05-8.54-5.04z" stroke="#3a414a" stroke-width=".05" fill="#3a414a"/><use xlink:href="#j" transform="matrix(1,0,0,1,1118.6728167230465,1118.1089976236835) translate(0 21.333333333333336)"/><path d="M13.92 653.27a6 6 0 0 1 6-6h281.75a6 6 0 0 1 6 6v134.87a6 6 0 0 1-6 6H19.92a6 6 0 0 1-6-6z" stroke="#3a414a" stroke-width="3" fill="#fff7a1"/><use xlink:href="#k" transform="matrix(1,0,0,1,28.604841875864523,654.610681478756) translate(48.79444444444445 70.675)"/><use xlink:href="#l" transform="matrix(1,0,0,1,28.604841875864523,654.610681478756) translate(113.79444444444445 70.675)"/><path d="M1137.7 1220.5l14.04 3.28 14.9 2.84 16.2 2.4 17.93 1.87 20.32 1.25 12.43.26-.06 2.96-12.5-.26-20.44-1.27-18.07-1.9-16.3-2.4-15.03-2.86-14.17-3.32-9.9-2.77v-3.06zm-272.55-87.38l20.44 1.27 18.06 1.88 16.3 2.4 15.03 2.87 14.15 3.32 13.7 3.83 13.74 4.46 14.44 5.38 16.83 7.1 82.14 38.4v3.27l-83.33-38.97-16.72-7.04-14.34-5.35-13.6-4.43-13.58-3.8-14.04-3.28-14.9-2.84-16.2-2.4-17.93-1.87-20.32-1.27-22.05-.45.06-2.93z" stroke="#3a414a" stroke-width=".05" fill="#3a414a"/><path d="M843.08 1132.67l-.06 2.94-1.5-.02v-2.95z" fill="#3a414a"/><path stroke="#3a414a" stroke-width=".05" fill="#3a414a"/><path d="M1241.66 1234.05l-13.06 7.37.3-15.27z" fill="#3a414a"/><path d="M1244.56 1234.1l-17.5 9.88.43-20.44zm-14.43 4.76l8.64-4.87-8.44-5.23z" stroke="#3a414a" stroke-width=".05" fill="#3a414a"/><use xlink:href="#j" transform="matrix(1,0,0,1,1090.0139004353819,1197.112783034942) translate(0 21.333333333333336)"/><path d="M451.2 569.73l-15.25 34.43-10.53 21.28-8.5 15.52-7.32 12.1-6.5 9.77-5.87 8.1-5.42 6.85-5.03 5.85-4.75 5.06-4.5 4.4-4.3 3.88-4.14 3.42-4 3.04-3.88 2.7-3.8 2.4-3.7 2.15-3.68 1.9-3.62 1.7-3.6 1.53-3.58 1.33-3.6 1.17-3.6 1-3.64.86-3.7.7-3.74.55-3.82.4-3.92.25-2.5.05-.06-2.95 2.44-.05 3.8-.24 3.7-.38 3.62-.54 3.56-.68 3.52-.82 3.5-.98 3.47-1.13 3.47-1.3 3.48-1.45 3.5-1.65 3.57-1.86 3.6-2.08 3.7-2.34 3.78-2.63 3.9-2.96 4.03-3.35 4.2-3.8 4.43-4.33 4.67-4.97 4.97-5.75 5.34-6.75 5.8-8 6.43-9.68 7.25-11.98 8.45-15.42 10.48-21.18 15.2-34.33 15.8-38.38h3.2zm172.78-260.3l-.48.05-3.63.54-3.56.68-3.5.82-3.5.98-3.47 1.13-3.48 1.3-3.48 1.45-3.5 1.66-3.57 1.86-3.6 2.08-3.7 2.34-3.77 2.63-3.9 2.96-4.04 3.36-4.22 3.8-4.42 4.32-4.66 4.97-4.97 5.76-5.34 6.75-5.82 8-6.4 9.68-7.26 11.98-8.46 15.43-10.46 21.15-30.13 73.1h-3.2l30.64-74.32 10.55-21.3 8.5-15.52 7.32-12.1 6.5-9.77 5.87-8.1 5.42-6.84 5.04-5.86 4.75-5.06 4.5-4.4 4.3-3.88 4.14-3.42 4-3.03 3.87-2.7 3.8-2.4 3.7-2.16 3.67-1.9 3.63-1.7 3.6-1.52 3.6-1.34 3.58-1.17 3.6-1 3.65-.86 3.68-.7 3.75-.54.54-.06z" stroke="#3a414a" stroke-width=".05" fill="#3a414a"/><path d="M310.74 722.15l-1.57.03v-2.95l1.5-.03z" fill="#3a414a"/><path stroke="#3a414a" stroke-width=".05" fill="#3a414a"/><path d="M631.96 307.48l-12.43 8.4-.9-15.25z" fill="#3a414a"/><path d="M634.86 307.3l-16.64 11.24-1.23-20.4zm-14 5.9l8.2-5.55-8.8-4.53z" stroke="#3a414a" stroke-width=".05" fill="#3a414a"/><use xlink:href="#j" transform="matrix(1,0,0,1,453.963782111883,498.1897303476336) translate(0 21.333333333333336)"/><path d="M453.52 722.18H310.67v-2.95h142.85zm170.28 0H490.56v-2.95H623.8z" stroke="#3a414a" stroke-width=".05" fill="#3a414a"/><path d="M310.7 722.18h-1.53v-2.95h1.54z" fill="#3a414a"/><path stroke="#3a414a" stroke-width=".05" fill="#3a414a"/><path d="M631.96 720.7l-12.9 7.64v-15.27z" fill="#3a414a"/><path d="M634.86 720.7l-17.3 10.23v-20.45zm-14.34 5.05l8.54-5.05-8.54-5.05z" stroke="#3a414a" stroke-width=".05" fill="#3a414a"/><use xlink:href="#j" transform="matrix(1,0,0,1,453.51916383201484,704.7039195243507) translate(0 21.333333333333336)"/><path d="M510.8 1016.33l10.46 21.15 8.46 15.4 7.25 12 6.4 9.67 5.82 8 5.33 6.75 4.97 5.76 4.66 4.97 4.42 4.33 4.2 3.8 4.05 3.33 3.9 2.95 3.78 2.63 3.7 2.35 3.6 2.08 3.56 1.87 3.5 1.65 3.5 1.47 3.47 1.28 3.47 1.13 3.5.98 3.5.83 3.57.7 3.63.52.48.05-.3 2.94-.55-.05-3.75-.55-3.68-.7-3.65-.86-3.6-1-3.6-1.17-3.58-1.34-3.6-1.5-3.63-1.72-3.66-1.9-3.72-2.15-3.8-2.4-3.87-2.7-4-3.04-4.14-3.42-4.3-3.87-4.5-4.4-4.76-5.07-5.04-5.85-5.42-6.84-5.88-8.1-6.5-9.78-7.3-12.1-8.5-15.5-10.55-21.3-30.62-74.34h3.2zM313.2 719.3l3.92.26 3.82.4 3.75.55 3.68.72 3.64.85 3.6 1 3.6 1.18 3.58 1.33 3.6 1.5 3.63 1.72 3.66 1.92 3.7 2.14 3.8 2.4 3.88 2.7 4 3.05 4.13 3.43 4.3 3.88 4.52 4.42 4.75 5.06 5.04 5.85 5.43 6.84 5.88 8.1 6.5 9.78 7.3 12.1 8.52 15.52 10.53 21.28 15.24 34.42 16.28 39.55h-3.2l-15.8-38.4-15.2-34.32-10.47-21.17-8.45-15.4-7.25-12-6.4-9.67-5.82-8-5.34-6.75-4.97-5.75-4.66-4.97-4.4-4.32-4.22-3.8-4.04-3.34-3.9-2.96-3.78-2.63-3.68-2.34-3.6-2.1-3.57-1.86-3.5-1.65-3.48-1.47-3.48-1.3-3.47-1.13-3.5-.97-3.5-.83-3.57-.68-3.63-.53-3.7-.4-3.8-.24-2.43-.05.06-2.94z" stroke="#3a414a" stroke-width=".05" fill="#3a414a"/><path d="M310.74 719.26l-.06 2.95-1.5-.02v-2.95z" fill="#3a414a"/><path stroke="#3a414a" stroke-width=".05" fill="#3a414a"/><path d="M631.96 1133.93l-13.34 6.85.9-15.25z" fill="#3a414a"/><path d="M634.86 1134.1l-17.87 9.17 1.22-20.4zm-14.62 4.2l8.83-4.54-8.22-5.56z" stroke="#3a414a" stroke-width=".05" fill="#3a414a"/><use xlink:href="#j" transform="matrix(1,0,0,1,453.9637821118831,911.2181087010675) translate(0 21.333333333333336)"/><path d="M636.4 556.7a6 6 0 0 1 6-6h241.34a6 6 0 0 1 6 6v328a6 6 0 0 1-6 6H642.4a6 6 0 0 1-6-6z" stroke="#3a414a" stroke-width="3" fill="#c3f7c8"/><use xlink:href="#a" transform="matrix(1,0,0,1,649.0719646698229,567.7039195243506) translate(72.64722222222224 20.8)"/><use xlink:href="#m" transform="matrix(1,0,0,1,649.0719646698229,567.7039195243506) translate(141.90833333333333 20.8)"/><path d="M1024.63 701.82l-24.32 5.47-26.9 5.14-25.7 3.8-28.3 2.95-33.94 2.1-42.42.85-.06-2.95 42.36-.84 33.82-2.1 28.17-2.95 25.58-3.77 26.8-5.13 24.93-5.6zm208.9-29.42l-32.75.65-33.83 2.1-28.17 2.95-25.56 3.77-51.55 11.6v-3l51-11.5 25.74-3.8 28.3-2.96 33.95-2.1 32.82-.65z" stroke="#3a414a" stroke-width=".05" fill="#3a414a"/><path d="M843.08 722.15l-1.57.03v-2.95l1.52-.03z" fill="#3a414a"/><path stroke="#3a414a" stroke-width=".05" fill="#3a414a"/><path d="M1241.66 670.76l-12.75 7.9-.3-15.27z" fill="#3a414a"/><path d="M1244.56 670.7l-17.08 10.57-.4-20.44zm-14.23 5.34l8.44-5.22-8.64-4.88z" stroke="#3a414a" stroke-width=".05" fill="#3a414a"/><use xlink:href="#n" transform="matrix(1,0,0,1,1024.6320809685762,680.1359272602214) translate(0 21.333333333333336)"/><path d="M1113.22 759.53l25.56 3.78 28.17 2.95 33.83 2.1 32.75.66-.06 2.96-32.82-.66-33.94-2.1-28.3-2.97-25.72-3.8-4.9-1.1v-3.02zM885.46 720.1l33.95 2.1 28.3 2.97 25.7 3.8 26.9 5.14 70.43 15.87V753l-71.02-16-26.8-5.12-25.57-3.78-28.17-2.95-33.82-2.1-42.36-.84.06-2.94z" stroke="#3a414a" stroke-width=".05" fill="#3a414a"/><path d="M843.08 719.26l-.06 2.95-1.5-.02v-2.95z" fill="#3a414a"/><path stroke="#3a414a" stroke-width=".05" fill="#3a414a"/><path d="M1241.66 770.64l-13.06 7.38.3-15.27z" fill="#3a414a"/><path d="M1244.56 770.7l-17.48 9.88.4-20.44zm-14.43 4.77l8.64-4.88-8.44-5.23z" stroke="#3a414a" stroke-width=".05" fill="#3a414a"/><use xlink:href="#n" transform="matrix(1,0,0,1,1070.7339100251952,739.6504950443473) translate(0 21.333333333333336)"/><path d="M1247.57 675.8a9.57 9.57 0 0 1 0-10.18l19.96-31.83a10.84 10.84 0 0 1 9.2-5.1h40.66a10.84 10.84 0 0 1 9.17 5.1l19.96 31.82a9.57 9.57 0 0 1 0 10.17l-19.96 31.82a10.84 10.84 0 0 1-9.18 5.08h-40.68a10.84 10.84 0 0 1-9.2-5.08z" stroke="#3a414a" stroke-width="3" fill="#9391ff"/><g><use xlink:href="#c" transform="matrix(1,0,0,1,1249.6528984333347,632.9039195243506) translate(13.560555555555561 42.175)"/><use xlink:href="#m" transform="matrix(1,0,0,1,1249.6528984333347,632.9039195243506) translate(67.005 42.175)"/></g><path d="M1247.57 775.8a9.57 9.57 0 0 1 0-10.18l19.96-31.83a10.84 10.84 0 0 1 9.2-5.1h40.66a10.84 10.84 0 0 1 9.17 5.1l19.96 31.82a9.57 9.57 0 0 1 0 10.17l-19.96 31.82a10.84 10.84 0 0 1-9.18 5.08h-40.68a10.84 10.84 0 0 1-9.2-5.08z" stroke="#3a414a" stroke-width="3" fill="#9391ff"/><g><use xlink:href="#c" transform="matrix(1,0,0,1,1249.6528984333347,732.9039195243506) translate(13.560555555555561 42.175)"/><use xlink:href="#f" transform="matrix(1,0,0,1,1249.6528984333347,732.9039195243506) translate(67.005 42.175)"/></g><path d="M686.14 691.03a6 6 0 0 1 6-6H834a6 6 0 0 1 6 6v59.34a6 6 0 0 1-6 6H692.15a6 6 0 0 1-6-6z" stroke="#3a414a" stroke-width="3" fill="#ffdda6"/><g><use xlink:href="#d" transform="matrix(1,0,0,1,693.8314295744381,688.6014896164902) translate(5.294444444444451 37.05)"/></g><path d="M572.74 40.1a6 6 0 0 1 6-6h387.93a6 6 0 0 1 6 6v35.33a6 6 0 0 1-6 6H578.74a6 6 0 0 1-6-6z" fill="none"/><g><use xlink:href="#o" transform="matrix(1,0,0,1,577.737531817374,39.091149176239185) translate(0 25.22222222222222)"/><use xlink:href="#p" transform="matrix(1,0,0,1,577.737531817374,39.091149176239185) translate(122.54320987654322 25.22222222222222)"/><use xlink:href="#q" transform="matrix(1,0,0,1,577.737531817374,39.091149176239185) translate(215.61728395061732 25.22222222222222)"/><use xlink:href="#r" transform="matrix(1,0,0,1,577.737531817374,39.091149176239185) translate(315.6913580246914 25.22222222222222)"/></g><defs><path d="M190 0L58-211 59 0H30v-248h39L202-35l-2-213h31V0h-41" id="s"/><path d="M100-194c62-1 85 37 85 99 1 63-27 99-86 99S16-35 15-95c0-66 28-99 85-99zM99-20c44 1 53-31 53-75 0-43-8-75-51-75s-53 32-53 75 10 74 51 75" id="t"/><path d="M85-194c31 0 48 13 60 33l-1-100h32l1 261h-30c-2-10 0-23-3-31C134-8 116 4 85 4 32 4 16-35 15-94c0-66 23-100 70-100zm9 24c-40 0-46 34-46 75 0 40 6 74 45 74 42 0 51-32 51-76 0-42-9-74-50-73" id="u"/><path d="M100-194c63 0 86 42 84 106H49c0 40 14 67 53 68 26 1 43-12 49-29l28 8c-11 28-37 45-77 45C44 4 14-33 15-96c1-61 26-98 85-98zm52 81c6-60-76-77-97-28-3 7-6 17-6 28h103" id="v"/><g id="a"><use transform="matrix(0.07222222222222222,0,0,0.07222222222222222,0,0)" xlink:href="#s"/><use transform="matrix(0.07222222222222222,0,0,0.07222222222222222,18.705555555555552,0)" xlink:href="#t"/><use transform="matrix(0.07222222222222222,0,0,0.07222222222222222,33.14999999999999,0)" xlink:href="#u"/><use transform="matrix(0.07222222222222222,0,0,0.07222222222222222,47.594444444444434,0)" xlink:href="#v"/></g><path d="M27 0v-27h64v-190l-56 39v-29l58-41h29v221h61V0H27" id="w"/><use transform="matrix(0.07222222222222222,0,0,0.07222222222222222,0,0)" xlink:href="#w" id="b"/><path d="M30-248c87 1 191-15 191 75 0 78-77 80-158 76V0H30v-248zm33 125c57 0 124 11 124-50 0-59-68-47-124-48v98" id="x"/><g id="c"><use transform="matrix(0.07222222222222222,0,0,0.07222222222222222,0,0)" xlink:href="#x"/><use transform="matrix(0.07222222222222222,0,0,0.07222222222222222,17.333333333333332,0)" xlink:href="#t"/><use transform="matrix(0.07222222222222222,0,0,0.07222222222222222,31.777777777777775,0)" xlink:href="#u"/></g><path d="M143 0L79-87 56-68V0H24v-261h32v163l83-92h37l-77 82L181 0h-38" id="y"/><path d="M84 4C-5 8 30-112 23-190h32v120c0 31 7 50 39 49 72-2 45-101 50-169h31l1 190h-30c-1-10 1-25-2-33-11 22-28 36-60 37" id="z"/><path d="M115-194c53 0 69 39 70 98 0 66-23 100-70 100C84 3 66-7 56-30L54 0H23l1-261h32v101c10-23 28-34 59-34zm-8 174c40 0 45-34 45-75 0-40-5-75-45-74-42 0-51 32-51 76 0 43 10 73 51 73" id="A"/><path d="M16-82v-28h88v28H16" id="B"/><path d="M115-194c55 1 70 41 70 98S169 2 115 4C84 4 66-9 55-30l1 105H24l-1-265h31l2 30c10-21 28-34 59-34zm-8 174c40 0 45-34 45-75s-6-73-45-74c-42 0-51 32-51 76 0 43 10 73 51 73" id="C"/><path d="M114-163C36-179 61-72 57 0H25l-1-190h30c1 12-1 29 2 39 6-27 23-49 58-41v29" id="D"/><path d="M141 0L90-78 38 0H4l68-98-65-92h35l48 74 47-74h35l-64 92 68 98h-35" id="E"/><path d="M179-190L93 31C79 59 56 82 12 73V49c39 6 53-20 64-50L1-190h34L92-34l54-156h33" id="F"/><g id="d"><use transform="matrix(0.07222222222222222,0,0,0.07222222222222222,0,0)" xlink:href="#y"/><use transform="matrix(0.07222222222222222,0,0,0.07222222222222222,12.999999999999998,0)" xlink:href="#z"/><use transform="matrix(0.07222222222222222,0,0,0.07222222222222222,27.444444444444443,0)" xlink:href="#A"/><use transform="matrix(0.07222222222222222,0,0,0.07222222222222222,41.888888888888886,0)" xlink:href="#v"/><use transform="matrix(0.07222222222222222,0,0,0.07222222222222222,56.33333333333333,0)" xlink:href="#B"/><use transform="matrix(0.07222222222222222,0,0,0.07222222222222222,64.92777777777778,0)" xlink:href="#C"/><use transform="matrix(0.07222222222222222,0,0,0.07222222222222222,79.37222222222222,0)" xlink:href="#D"/><use transform="matrix(0.07222222222222222,0,0,0.07222222222222222,87.96666666666667,0)" xlink:href="#t"/><use transform="matrix(0.07222222222222222,0,0,0.07222222222222222,102.41111111111111,0)" xlink:href="#E"/><use transform="matrix(0.07222222222222222,0,0,0.07222222222222222,115.41111111111111,0)" xlink:href="#F"/></g><path fill="#333" d="M23 0v-37h61v-169l-59 37v-38l62-41h46v211h57V0H23" id="G"/><path fill="#333" d="M4 7l51-268h42L46 7H4" id="H"/><g id="e"><use transform="matrix(0.07407407407407408,0,0,0.07407407407407408,0,0)" xlink:href="#G"/><use transform="matrix(0.07407407407407408,0,0,0.07407407407407408,14.814814814814817,0)" xlink:href="#H"/><use transform="matrix(0.07407407407407408,0,0,0.07407407407407408,22.222222222222225,0)" xlink:href="#G"/></g><path d="M126-127c33 6 58 20 58 59 0 88-139 92-164 29-3-8-5-16-6-25l32-3c6 27 21 44 54 44 32 0 52-15 52-46 0-38-36-46-79-43v-28c39 1 72-4 72-42 0-27-17-43-46-43-28 0-47 15-49 41l-32-3c6-42 35-63 81-64 48-1 79 21 79 65 0 36-21 52-52 59" id="I"/><use transform="matrix(0.07222222222222222,0,0,0.07222222222222222,0,0)" xlink:href="#I" id="f"/><path d="M155-56V0h-30v-56H8v-25l114-167h33v167h35v25h-35zm-30-156c-27 46-58 90-88 131h88v-131" id="J"/><use transform="matrix(0.07222222222222222,0,0,0.07222222222222222,0,0)" xlink:href="#J" id="g"/><path d="M110-160c48 1 74 30 74 79 0 53-28 85-80 85-65 0-83-55-86-122-5-90 50-162 133-122 14 7 22 21 27 39l-31 6c-5-40-67-38-82-6-9 19-15 44-15 74 11-20 30-34 60-33zm-7 138c34 0 49-23 49-58s-16-56-50-56c-29 0-50 16-49 49 1 36 15 65 50 65" id="K"/><use transform="matrix(0.07222222222222222,0,0,0.07222222222222222,0,0)" xlink:href="#K" id="h"/><path d="M54-142c48-35 137-8 131 61C196 18 31 33 14-55l32-4c7 23 22 37 52 37 35-1 51-22 54-58 4-55-73-65-99-34H22l8-134h141v27H59" id="L"/><use transform="matrix(0.07222222222222222,0,0,0.07222222222222222,0,0)" xlink:href="#L" id="i"/><path fill="#333" d="M128-127c34 4 56 21 59 58 7 91-148 94-172 28-4-9-6-17-7-26l51-5c1 24 16 35 40 36 23 0 39-12 38-36-1-31-31-36-65-34v-40c32 2 59-3 59-33 0-20-13-33-34-33s-33 13-35 32l-50-3c6-44 37-68 86-68 50 0 83 20 83 66 0 35-22 52-53 58" id="M"/><g id="j"><use transform="matrix(0.07407407407407408,0,0,0.07407407407407408,0,0)" xlink:href="#G"/><use transform="matrix(0.07407407407407408,0,0,0.07407407407407408,14.814814814814817,0)" xlink:href="#H"/><use transform="matrix(0.07407407407407408,0,0,0.07407407407407408,22.222222222222225,0)" xlink:href="#M"/></g><path d="M30 0v-248h33v221h125V0H30" id="N"/><path d="M141-36C126-15 110 5 73 4 37 3 15-17 15-53c-1-64 63-63 125-63 3-35-9-54-41-54-24 1-41 7-42 31l-33-3c5-37 33-52 76-52 45 0 72 20 72 64v82c-1 20 7 32 28 27v20c-31 9-61-2-59-35zM48-53c0 20 12 33 32 33 41-3 63-29 60-74-43 2-92-5-92 41" id="O"/><g id="k"><use transform="matrix(0.07222222222222222,0,0,0.07222222222222222,0,0)" xlink:href="#N"/><use transform="matrix(0.07222222222222222,0,0,0.07222222222222222,14.444444444444443,0)" xlink:href="#t"/><use transform="matrix(0.07222222222222222,0,0,0.07222222222222222,28.888888888888886,0)" xlink:href="#O"/><use transform="matrix(0.07222222222222222,0,0,0.07222222222222222,43.33333333333333,0)" xlink:href="#u"/></g><path d="M160-131c35 5 61 23 61 61C221 17 115-2 30 0v-248c76 3 177-17 177 60 0 33-19 50-47 57zm-97-11c50-1 110 9 110-42 0-47-63-36-110-37v79zm0 115c55-2 124 14 124-45 0-56-70-42-124-44v89" id="P"/><path d="M24 0v-261h32V0H24" id="Q"/><path d="M117-194c89-4 53 116 60 194h-32v-121c0-31-8-49-39-48C34-167 62-67 57 0H25l-1-190h30c1 10-1 24 2 32 11-22 29-35 61-36" id="R"/><path d="M96-169c-40 0-48 33-48 73s9 75 48 75c24 0 41-14 43-38l32 2c-6 37-31 61-74 61-59 0-76-41-82-99-10-93 101-131 147-64 4 7 5 14 7 22l-32 3c-4-21-16-35-41-35" id="S"/><g id="l"><use transform="matrix(0.07222222222222222,0,0,0.07222222222222222,0,0)" xlink:href="#P"/><use transform="matrix(0.07222222222222222,0,0,0.07222222222222222,17.333333333333332,0)" xlink:href="#O"/><use transform="matrix(0.07222222222222222,0,0,0.07222222222222222,31.777777777777775,0)" xlink:href="#Q"/><use transform="matrix(0.07222222222222222,0,0,0.07222222222222222,37.48333333333333,0)" xlink:href="#O"/><use transform="matrix(0.07222222222222222,0,0,0.07222222222222222,51.92777777777777,0)" xlink:href="#R"/><use transform="matrix(0.07222222222222222,0,0,0.07222222222222222,66.3722222222222,0)" xlink:href="#S"/><use transform="matrix(0.07222222222222222,0,0,0.07222222222222222,79.37222222222219,0)" xlink:href="#v"/><use transform="matrix(0.07222222222222222,0,0,0.07222222222222222,93.81666666666663,0)" xlink:href="#D"/></g><path d="M101-251c82-7 93 87 43 132L82-64C71-53 59-42 53-27h129V0H18c2-99 128-94 128-182 0-28-16-43-45-43s-46 15-49 41l-32-3c6-41 34-60 81-64" id="T"/><use transform="matrix(0.07222222222222222,0,0,0.07222222222222222,0,0)" xlink:href="#T" id="m"/><path fill="#333" d="M182-182c0 78-84 86-111 141h115V0H12c-6-101 99-100 120-180 1-22-12-31-33-32-23 0-32 14-35 34l-49-3c5-45 32-70 84-70 51 0 83 22 83 69" id="U"/><g id="n"><use transform="matrix(0.07407407407407408,0,0,0.07407407407407408,0,0)" xlink:href="#G"/><use transform="matrix(0.07407407407407408,0,0,0.07407407407407408,14.814814814814817,0)" xlink:href="#H"/><use transform="matrix(0.07407407407407408,0,0,0.07407407407407408,22.222222222222225,0)" xlink:href="#U"/></g><path d="M30 0v-248h187v28H63v79h144v27H63v87h162V0H30" id="V"/><path d="M59-47c-2 24 18 29 38 22v24C64 9 27 4 27-40v-127H5v-23h24l9-43h21v43h35v23H59v120" id="W"/><g id="o"><use transform="matrix(0.08641975308641976,0,0,0.08641975308641976,0,0)" xlink:href="#V"/><use transform="matrix(0.08641975308641976,0,0,0.08641975308641976,20.740740740740744,0)" xlink:href="#E"/><use transform="matrix(0.08641975308641976,0,0,0.08641975308641976,36.296296296296305,0)" xlink:href="#W"/><use transform="matrix(0.08641975308641976,0,0,0.08641975308641976,44.93827160493828,0)" xlink:href="#v"/><use transform="matrix(0.08641975308641976,0,0,0.08641975308641976,62.22222222222223,0)" xlink:href="#D"/><use transform="matrix(0.08641975308641976,0,0,0.08641975308641976,72.50617283950618,0)" xlink:href="#R"/><use transform="matrix(0.08641975308641976,0,0,0.08641975308641976,89.79012345679013,0)" xlink:href="#O"/><use transform="matrix(0.08641975308641976,0,0,0.08641975308641976,107.07407407407409,0)" xlink:href="#Q"/></g><path d="M127-220V0H93v-220H8v-28h204v28h-85" id="X"/><path d="M101-234c-31-9-42 10-38 44h38v23H63V0H32v-167H5v-23h27c-7-52 17-82 69-68v24" id="Y"/><path d="M24-231v-30h32v30H24zM24 0v-190h32V0H24" id="Z"/><g id="p"><use transform="matrix(0.08641975308641976,0,0,0.08641975308641976,0,0)" xlink:href="#X"/><use transform="matrix(0.08641975308641976,0,0,0.08641975308641976,17.802469135802472,0)" xlink:href="#D"/><use transform="matrix(0.08641975308641976,0,0,0.08641975308641976,28.08641975308642,0)" xlink:href="#O"/><use transform="matrix(0.08641975308641976,0,0,0.08641975308641976,45.37037037037039,0)" xlink:href="#Y"/><use transform="matrix(0.08641975308641976,0,0,0.08641975308641976,53.407407407407426,0)" xlink:href="#Y"/><use transform="matrix(0.08641975308641976,0,0,0.08641975308641976,62.04938271604939,0)" xlink:href="#Z"/><use transform="matrix(0.08641975308641976,0,0,0.08641975308641976,68.87654320987656,0)" xlink:href="#S"/></g><path d="M33-154v-36h34v36H33zM33 0v-36h34V0H33" id="aa"/><g id="q"><use transform="matrix(0.08641975308641976,0,0,0.08641975308641976,0,0)" xlink:href="#x"/><use transform="matrix(0.08641975308641976,0,0,0.08641975308641976,20.740740740740744,0)" xlink:href="#t"/><use transform="matrix(0.08641975308641976,0,0,0.08641975308641976,38.0246913580247,0)" xlink:href="#Q"/><use transform="matrix(0.08641975308641976,0,0,0.08641975308641976,44.85185185185187,0)" xlink:href="#Z"/><use transform="matrix(0.08641975308641976,0,0,0.08641975308641976,51.67901234567903,0)" xlink:href="#S"/><use transform="matrix(0.08641975308641976,0,0,0.08641975308641976,67.23456790123458,0)" xlink:href="#F"/><use transform="matrix(0.08641975308641976,0,0,0.08641975308641976,82.79012345679014,0)" xlink:href="#aa"/></g><g id="r"><use transform="matrix(0.08641975308641976,0,0,0.08641975308641976,0,0)" xlink:href="#N"/><use transform="matrix(0.08641975308641976,0,0,0.08641975308641976,17.283950617283953,0)" xlink:href="#t"/><use transform="matrix(0.08641975308641976,0,0,0.08641975308641976,34.567901234567906,0)" xlink:href="#S"/><use transform="matrix(0.08641975308641976,0,0,0.08641975308641976,50.12345679012346,0)" xlink:href="#O"/><use transform="matrix(0.08641975308641976,0,0,0.08641975308641976,67.40740740740742,0)" xlink:href="#Q"/></g></defs></g></svg>