<svg xmlns="http://www.w3.org/2000/svg" xmlns:xlink="http://www.w3.org/1999/xlink" xmlns:lucid="lucid" width="1402.47" height="1300.15"><g transform="translate(-1648.417455599813 -34.091149176239185)" lucid:page-tab-id="0_0"><path d="M2208.74 941.48a6 6 0 0 1 6-6h828.65a6 6 0 0 1 6 6v385.26a6 6 0 0 1-6 6h-828.66a6 6 0 0 1-6-6z" fill-opacity="0"/><path d="M2245.43 935.48h30.7m15.33 0h30.7m15.34 0h30.7m15.34 0h30.7m15.33 0h30.7m15.34 0h30.7m15.34 0h30.7m15.34 0h30.7m15.34 0h30.7m15.33 0h30.7m15.34 0h30.68m15.34 0h30.7m15.34 0h30.7m15.34 0h30.7m15.33 0h30.7m15.34 0h30.7m15.34 0h30.7m15.34 0h15.35l.93.07.9.22.88.36.8.5.73.6.6.72.5.8.36.88.2.9.1.95v14.27m0 14.27v28.53m0 14.27v28.54m0 14.27v28.54m0 14.27v28.53m0 14.27v28.54m0 14.27v28.54m0 14.26v28.53m0 14.26v28.54m0 14.27v14.27l-.1.94-.2.9-.37.88-.5.8-.6.72-.72.6-.8.5-.86.37-.9.2-.95.1h-15.36m-15.34 0H2982m-15.34 0h-30.7m-15.34 0h-30.7m-15.33 0h-30.7m-15.35 0h-30.7m-15.33 0h-30.7m-15.34 0h-30.7m-15.34 0h-30.7m-15.33 0h-30.68m-15.35 0h-30.7m-15.33 0h-30.7m-15.34 0h-30.7m-15.34 0h-30.7m-15.33 0h-30.7m-15.34 0h-30.7m-15.34 0h-30.7m-15.34 0h-30.7m-15.34 0h-15.34l-.94-.1-.92-.2-.87-.37-.8-.5-.7-.6-.62-.7-.5-.82-.35-.87-.22-.92-.06-.94v-14.27m0-14.27v-28.54m0-14.27v-28.54m0-14.27v-28.55m0-14.27v-28.54m0-14.27v-28.53m0-14.27v-28.54m0-14.27v-28.54m0-14.27v-28.53m0-14.27v-14.27l.07-.94.23-.9.36-.88.48-.8.6-.72.73-.6.8-.5.88-.37.92-.22.94-.07h15.34" stroke="#3a414a" stroke-width="3" fill="none"/><path d="M2208.74 528.08a6 6 0 0 1 6-6h828.65a6 6 0 0 1 6 6v385.25a6 6 0 0 1-6 6h-828.66a6 6 0 0 1-6-6z" fill-opacity="0"/><path d="M2245.43 522.08h30.7m15.33 0h30.7m15.34 0h30.7m15.34 0h30.7m15.33 0h30.7m15.34 0h30.7m15.34 0h30.7m15.34 0h30.7m15.34 0h30.7m15.33 0h30.7m15.34 0h30.68m15.34 0h30.7m15.34 0h30.7m15.34 0h30.7m15.33 0h30.7m15.34 0h30.7m15.34 0h30.7m15.34 0h15.35l.93.07.9.22.88.36.8.5.73.6.6.72.5.8.36.87.2.92.1.94v14.26m0 14.27v28.55m0 14.27v28.54m0 14.26v28.54m0 14.27v28.54m0 14.27v28.54m0 14.26v28.54m0 14.27V842m0 14.26v28.54m0 14.26v14.27l-.1.94-.2.92-.37.86-.5.8-.6.72-.72.6-.8.5-.86.36-.9.22-.95.07h-15.36m-15.34 0H2982m-15.34 0h-30.7m-15.34 0h-30.7m-15.33 0h-30.7m-15.35 0h-30.7m-15.33 0h-30.7m-15.34 0h-30.7m-15.34 0h-30.7m-15.33 0h-30.68m-15.35 0h-30.7m-15.33 0h-30.7m-15.34 0h-30.7m-15.34 0h-30.7m-15.33 0h-30.7m-15.34 0h-30.7m-15.34 0h-30.7m-15.34 0h-30.7m-15.34 0h-15.34l-.94-.07-.92-.22-.87-.36-.8-.5-.7-.6-.62-.72-.5-.8-.35-.87-.22-.93-.06-.94v-14.27m0-14.26v-28.54m0-14.27v-28.55m0-14.27v-28.53m0-14.27v-28.54m0-14.27v-28.54m0-14.27v-28.53m0-14.27v-28.54m0-14.27V556.6m0-14.26v-14.26l.07-.94.23-.92.36-.87.48-.8.6-.72.73-.6.8-.5.88-.36.92-.22.94-.07h15.34" stroke="#3a414a" stroke-width="3" fill="none"/><path d="M2208.74 114.67a6 6 0 0 1 6-6h828.65a6 6 0 0 1 6 6v385.26a6 6 0 0 1-6 6h-828.66a6 6 0 0 1-6-6z" fill-opacity="0"/><path d="M2245.43 108.67h30.7m15.33 0h30.7m15.34 0h30.7m15.34 0h30.7m15.33 0h30.7m15.34 0h30.7m15.34 0h30.7m15.34 0h30.7m15.34 0h30.7m15.33 0h30.7m15.34 0h30.68m15.34 0h30.7m15.34 0h30.7m15.34 0h30.7m15.33 0h30.7m15.34 0h30.7m15.34 0h30.7m15.34 0h15.35l.93.07.9.22.88.36.8.5.73.6.6.72.5.8.36.88.2.9.1.95v14.27m0 14.27v28.55m0 14.26v28.55m0 14.27v28.54m0 14.27v28.53m0 14.27v28.54m0 14.27v28.54m0 14.27v28.53m0 14.27v28.54m0 14.26v14.27l-.1.94-.2.9-.37.88-.5.8-.6.72-.72.6-.8.5-.86.37-.9.2-.95.1h-15.36m-15.34 0H2982m-15.34 0h-30.7m-15.34 0h-30.7m-15.33 0h-30.7m-15.35 0h-30.7m-15.33 0h-30.7m-15.34 0h-30.7m-15.34 0h-30.7m-15.33 0h-30.68m-15.35 0h-30.7m-15.33 0h-30.7m-15.34 0h-30.7m-15.34 0h-30.7m-15.33 0h-30.7m-15.34 0h-30.7m-15.34 0h-30.7m-15.34 0h-30.7m-15.34 0h-15.34l-.94-.1-.92-.2-.87-.37-.8-.5-.7-.6-.62-.72-.5-.8-.35-.87-.22-.9-.06-.95v-14.27m0-14.27v-28.55m0-14.27v-28.53m0-14.27v-28.54m0-14.27v-28.54m0-14.27v-28.53m0-14.27v-28.54m0-14.27V186m0-14.25V143.2m0-14.26v-14.27l.07-.94.23-.92.36-.85.48-.8.6-.72.73-.62.8-.48.88-.36.92-.22.94-.07h15.34" stroke="#3a414a" stroke-width="3" fill="none"/><path d="M2272.4 143.3a6 6 0 0 1 6-6h241.34a6 6 0 0 1 6 6v328a6 6 0 0 1-6 6H2278.4a6 6 0 0 1-6-6z" stroke="#3a414a" stroke-width="3" fill="#c3f7c8"/><use xlink:href="#a" transform="matrix(1,0,0,1,2285.0719646698226,154.29884142501746) translate(72.64722222222224 20.8)"/><use xlink:href="#b" transform="matrix(1,0,0,1,2285.0719646698226,154.29884142501746) translate(141.90833333333333 20.8)"/><path d="M2883.57 312.38a9.57 9.57 0 0 1 0-10.17l19.96-31.82a10.84 10.84 0 0 1 9.2-5.08h40.66a10.84 10.84 0 0 1 9.17 5.08l19.96 31.83a9.57 9.57 0 0 1 0 10.18l-19.96 31.83a10.84 10.84 0 0 1-9.18 5.1h-40.68a10.84 10.84 0 0 1-9.2-5.1z" stroke="#3a414a" stroke-width="3" fill="#9391ff"/><use xlink:href="#c" transform="matrix(1,0,0,1,2885.6528984333345,269.4988414250175) translate(13.560555555555561 42.175)"/><use xlink:href="#b" transform="matrix(1,0,0,1,2885.6528984333345,269.4988414250175) translate(67.005 42.175)"/><path d="M2322.14 277.63a6 6 0 0 1 6-6H2470a6 6 0 0 1 6 6v59.34a6 6 0 0 1-6 6h-141.86a6 6 0 0 1-6-6z" stroke="#3a414a" stroke-width="3" fill="#ffdda6"/><use xlink:href="#d" transform="matrix(1,0,0,1,2329.8314295744376,275.19641151715723) translate(5.294444444444451 37.05)"/><path d="M2712.2 308.77H2479v-2.95h233.2zm157.3 0h-120.26v-2.95h120.26z" stroke="#3a414a" stroke-width=".05" fill="#3a414a"/><path d="M2479.05 308.77h-1.54v-2.95h1.55z" fill="#3a414a"/><path stroke="#3a414a" stroke-width=".05" fill="#3a414a"/><path d="M2877.66 307.3l-12.9 7.63v-15.27z" fill="#3a414a"/><path d="M2880.56 307.3l-17.28 10.22v-20.44zm-14.33 5.05l8.53-5.05-8.53-5.05z" stroke="#3a414a" stroke-width=".05" fill="#3a414a"/><use xlink:href="#e" transform="matrix(1,0,0,1,2712.208029719613,291.2988414250175) translate(0 21.333333333333336)"/><path d="M2272.4 970.1a6 6 0 0 1 6-6h241.34a6 6 0 0 1 6 6v328a6 6 0 0 1-6 6H2278.4a6 6 0 0 1-6-6z" stroke="#3a414a" stroke-width="3" fill="#c3f7c8"/><use xlink:href="#a" transform="matrix(1,0,0,1,2285.0719646698235,981.1089976236835) translate(72.64722222222224 20.8)"/><use xlink:href="#f" transform="matrix(1,0,0,1,2285.0719646698235,981.1089976236835) translate(141.90833333333333 20.8)"/><path d="M2883.57 1039.2a9.57 9.57 0 0 1 0-10.17l19.96-31.84a10.84 10.84 0 0 1 9.2-5.1h40.66a10.84 10.84 0 0 1 9.17 5.1l19.96 31.83a9.57 9.57 0 0 1 0 10.16l-19.96 31.83a10.84 10.84 0 0 1-9.18 5.08h-40.68a10.84 10.84 0 0 1-9.2-5.07z" stroke="#3a414a" stroke-width="3" fill="#9391ff"/><use xlink:href="#c" transform="matrix(1,0,0,1,2885.6528984333345,996.3089976236836) translate(13.560555555555561 42.175)"/><use xlink:href="#g" transform="matrix(1,0,0,1,2885.6528984333345,996.3089976236836) translate(67.005 42.175)"/><path d="M2883.57 1239.2a9.57 9.57 0 0 1 0-10.17l19.96-31.84a10.84 10.84 0 0 1 9.2-5.1h40.66a10.84 10.84 0 0 1 9.17 5.1l19.96 31.83a9.57 9.57 0 0 1 0 10.16l-19.96 31.83a10.84 10.84 0 0 1-9.18 5.08h-40.68a10.84 10.84 0 0 1-9.2-5.07z" stroke="#3a414a" stroke-width="3" fill="#9391ff"/><use xlink:href="#c" transform="matrix(1,0,0,1,2885.6528984333345,1196.3089976236836) translate(13.560555555555561 42.175)"/><use xlink:href="#h" transform="matrix(1,0,0,1,2885.6528984333345,1196.3089976236836) translate(67.005 42.175)"/><path d="M2883.57 1139.2a9.57 9.57 0 0 1 0-10.17l19.96-31.84a10.84 10.84 0 0 1 9.2-5.1h40.66a10.84 10.84 0 0 1 9.17 5.1l19.96 31.83a9.57 9.57 0 0 1 0 10.16l-19.96 31.83a10.84 10.84 0 0 1-9.18 5.08h-40.68a10.84 10.84 0 0 1-9.2-5.07z" stroke="#3a414a" stroke-width="3" fill="#9391ff"/><use xlink:href="#c" transform="matrix(1,0,0,1,2885.6528984333345,1096.3089976236836) translate(13.560555555555561 42.175)"/><use xlink:href="#i" transform="matrix(1,0,0,1,2885.6528984333345,1096.3089976236836) translate(67.005 42.175)"/><path d="M2322.14 1104.44a6 6 0 0 1 6-6H2470a6 6 0 0 1 6 6v59.34a6 6 0 0 1-6 6h-141.86a6 6 0 0 1-6-6z" stroke="#3a414a" stroke-width="3" fill="#ffdda6"/><use xlink:href="#d" transform="matrix(1,0,0,1,2329.8314295744385,1102.0065677158232) translate(5.294444444444451 37.05)"/><path d="M2729.82 1035.58h-26.7l-3.6.3-3.42.8-3.27 1.36-3 1.85-2.7 2.28-2.3 2.7-1.84 3-1.36 3.27-.83 3.44-.27 3.57v52l-.3 3.92-.94 3.88-1.54 3.7-2.1 3.4-2.6 3.05-3.03 2.6-3.4 2.08-3.7 1.54-3.9.94-3.9.3H2479v-2.95h176l3.58-.28 3.44-.82 3.26-1.36 3-1.84 2.7-2.3 2.3-2.68 1.84-3.02 1.36-3.26.82-3.44.28-3.58v-52l.3-3.93.94-3.88 1.53-3.7 2.1-3.4 2.6-3.05 3.03-2.6 3.4-2.1 3.7-1.52 3.9-.94 3.92-.3h26.82zm139.68 0h-102.65v-2.95h102.65z" stroke="#3a414a" stroke-width=".05" fill="#3a414a"/><path d="M2479.04 1135.58h-1.53v-2.95h1.54z" fill="#3a414a"/><path stroke="#3a414a" stroke-width=".05" fill="#3a414a"/><path d="M2877.66 1034.1l-12.9 7.64v-15.27z" fill="#3a414a"/><path d="M2880.56 1034.1l-17.28 10.23v-20.44zm-14.33 5.06l8.53-5.05-8.53-5.04z" stroke="#3a414a" stroke-width=".05" fill="#3a414a"/><use xlink:href="#e" transform="matrix(1,0,0,1,2729.816153620128,1018.1089976236835) translate(0 21.333333333333336)"/><path d="M2751.83 1135.58H2479v-2.95h272.83zm117.67 0h-80.64v-2.95h80.64z" stroke="#3a414a" stroke-width=".05" fill="#3a414a"/><path d="M2479.04 1135.58h-1.53v-2.95h1.54z" fill="#3a414a"/><path stroke="#3a414a" stroke-width=".05" fill="#3a414a"/><path d="M2877.66 1134.1l-12.9 7.64v-15.27z" fill="#3a414a"/><path d="M2880.56 1134.1l-17.28 10.23v-20.44zm-14.33 5.06l8.53-5.05-8.53-5.04z" stroke="#3a414a" stroke-width=".05" fill="#3a414a"/><use xlink:href="#e" transform="matrix(1,0,0,1,2751.8263084957707,1118.1089976236835) translate(0 21.333333333333336)"/><path d="M2659.04 1132.94l3.9.94 3.68 1.53 3.4 2.1 3.05 2.6 2.6 3.03 2.1 3.4 1.52 3.7.92 3.9.3 3.92v52l.3 3.58.82 3.44 1.35 3.26 1.84 3.02 2.3 2.68 2.68 2.3 3 1.85 3.28 1.35 3.43.82 3.6.28h100.05v2.95H2703l-3.93-.3-3.9-.94-3.68-1.53-3.42-2.08-3.04-2.6-2.6-3.03-2.1-3.42-1.52-3.7-.93-3.88-.32-3.93v-52l-.28-3.58-.82-3.45-1.36-3.27-1.84-3-2.3-2.7-2.68-2.3-3.02-1.84-3.26-1.35-3.44-.83-3.58-.3h-176v-2.94h176.12zm210.46 99.7v2.94h-29.28v-2.95z" stroke="#3a414a" stroke-width=".05" fill="#3a414a"/><path d="M2479.04 1135.58h-1.53v-2.95h1.54z" fill="#3a414a"/><path stroke="#3a414a" stroke-width=".05" fill="#3a414a"/><path d="M2877.66 1234.1l-12.9 7.64v-15.27z" fill="#3a414a"/><path d="M2880.56 1234.1l-17.28 10.23v-20.44zm-14.33 5.06l8.53-5.05-8.53-5.04z" stroke="#3a414a" stroke-width=".05" fill="#3a414a"/><use xlink:href="#e" transform="matrix(1,0,0,1,2803.1833365389384,1218.1089976236835) translate(0 21.333333333333336)"/><path d="M1649.92 653.27a6 6 0 0 1 6-6h281.74a6 6 0 0 1 6 6v134.87a6 6 0 0 1-6 6h-281.74a6 6 0 0 1-6-6z" stroke="#3a414a" stroke-width="3" fill="#fff7a1"/><use xlink:href="#j" transform="matrix(1,0,0,1,1664.6048418758642,654.610681478756) translate(48.79444444444445 70.675)"/><use xlink:href="#k" transform="matrix(1,0,0,1,1664.6048418758642,654.610681478756) translate(113.79444444444445 70.675)"/><path d="M2087.2 569.73l-15.25 34.43-10.53 21.28-8.5 15.52-7.32 12.1-6.5 9.77-5.87 8.1-5.42 6.85-5.03 5.85-4.75 5.06-4.5 4.4-4.3 3.88-4.14 3.42-4 3.04-3.88 2.7-3.8 2.4-3.7 2.15-3.67 1.9-3.63 1.7-3.6 1.53-3.58 1.33-3.6 1.17-3.6 1-3.64.86-3.7.7-3.74.55-3.82.4-3.92.25-2.5.05-.06-2.95 2.44-.05 3.8-.24 3.7-.38 3.62-.54 3.56-.68 3.52-.82 3.5-.98 3.46-1.13 3.48-1.3 3.48-1.45 3.5-1.65 3.57-1.86 3.6-2.08 3.7-2.34 3.78-2.63 3.9-2.96 4.03-3.35 4.2-3.8 4.43-4.33 4.67-4.97 4.97-5.75 5.34-6.75 5.8-8 6.42-9.68 7.25-11.98 8.45-15.42 10.48-21.18 15.2-34.33 15.8-38.38h3.2zm172.78-260.3l-.48.05-3.63.54-3.56.68-3.5.82-3.5.98-3.48 1.13-3.47 1.3-3.48 1.45-3.5 1.66-3.57 1.86-3.6 2.08-3.7 2.34-3.78 2.63-3.9 2.96-4.03 3.36-4.22 3.8-4.42 4.32-4.66 4.97-4.97 5.76-5.34 6.75-5.82 8-6.4 9.68-7.26 11.98-8.45 15.43-10.47 21.15-30.13 73.1h-3.2l30.64-74.32 10.55-21.3 8.5-15.52 7.32-12.1 6.5-9.77 5.87-8.1 5.42-6.84 5.04-5.86 4.75-5.06 4.5-4.4 4.3-3.88 4.14-3.42 4-3.03 3.87-2.7 3.8-2.4 3.7-2.16 3.68-1.9 3.62-1.7 3.6-1.52 3.6-1.34 3.58-1.17 3.6-1 3.64-.86 3.68-.7 3.75-.54.54-.06z" stroke="#3a414a" stroke-width=".05" fill="#3a414a"/><path d="M1946.74 722.15l-1.58.03v-2.95l1.52-.03z" fill="#3a414a"/><path stroke="#3a414a" stroke-width=".05" fill="#3a414a"/><path d="M2267.96 307.48l-12.43 8.4-.9-15.25z" fill="#3a414a"/><path d="M2270.86 307.3l-16.64 11.24-1.23-20.4zm-14 5.9l8.2-5.55-8.82-4.53z" stroke="#3a414a" stroke-width=".05" fill="#3a414a"/><use xlink:href="#l" transform="matrix(1,0,0,1,2089.9637821118827,498.1897303476334) translate(0 21.333333333333336)"/><path d="M2114.42 722.18h-167.75v-2.95h167.75zm145.38 0h-108.34v-2.95h108.34z" stroke="#3a414a" stroke-width=".05" fill="#3a414a"/><path d="M1946.7 722.18h-1.54v-2.95h1.55z" fill="#3a414a"/><path stroke="#3a414a" stroke-width=".05" fill="#3a414a"/><path d="M2267.96 720.7l-12.9 7.64v-15.27z" fill="#3a414a"/><path d="M2270.86 720.7l-17.3 10.23v-20.45zm-14.34 5.05l8.54-5.05-8.54-5.05z" stroke="#3a414a" stroke-width=".05" fill="#3a414a"/><use xlink:href="#l" transform="matrix(1,0,0,1,2114.42328086874,704.7039195243506) translate(0 21.333333333333336)"/><path d="M2146.8 1016.33l10.46 21.15 8.46 15.4 7.25 12 6.4 9.67 5.82 8 5.33 6.75 4.97 5.76 4.66 4.97 4.42 4.33 4.2 3.8 4.05 3.33 3.9 2.95 3.78 2.63 3.7 2.35 3.6 2.08 3.56 1.87 3.5 1.65 3.5 1.47 3.46 1.28 3.48 1.13 3.5.98 3.5.83 3.57.7 3.63.52.48.05-.3 2.94-.55-.05-3.75-.55-3.68-.7-3.64-.86-3.6-1-3.6-1.17-3.6-1.34-3.6-1.5-3.6-1.72-3.68-1.9-3.72-2.15-3.8-2.4-3.87-2.7-4-3.04-4.14-3.42-4.3-3.87-4.5-4.4-4.76-5.07-5.04-5.85-5.42-6.84-5.88-8.1-6.5-9.78-7.3-12.1-8.5-15.5-10.55-21.3-30.62-74.34h3.2zM1949.2 719.3l3.92.26 3.82.4 3.75.55 3.67.72 3.65.85 3.6 1 3.6 1.18 3.58 1.33 3.6 1.5 3.63 1.72 3.66 1.92 3.7 2.14 3.8 2.4 3.88 2.7 4 3.05 4.13 3.43 4.3 3.88 4.52 4.42 4.75 5.06 5.04 5.85 5.43 6.84 5.88 8.1 6.5 9.78 7.3 12.1 8.52 15.52 10.53 21.28 15.24 34.42 16.28 39.55h-3.2l-15.8-38.4-15.2-34.32-10.48-21.17-8.45-15.4-7.24-12-6.4-9.67-5.82-8-5.34-6.75-4.97-5.75-4.66-4.97-4.4-4.32-4.22-3.8-4.04-3.34-3.9-2.96-3.78-2.63-3.68-2.34-3.6-2.1-3.57-1.86-3.5-1.65-3.48-1.47-3.48-1.3-3.47-1.13-3.5-.97-3.5-.83-3.57-.68-3.63-.53-3.7-.4-3.8-.24-2.43-.05.06-2.94z" stroke="#3a414a" stroke-width=".05" fill="#3a414a"/><path d="M1946.74 719.26l-.06 2.95-1.52-.02v-2.95z" fill="#3a414a"/><path stroke="#3a414a" stroke-width=".05" fill="#3a414a"/><path d="M2267.96 1133.93l-13.34 6.85.9-15.25z" fill="#3a414a"/><path d="M2270.86 1134.1l-17.87 9.17 1.22-20.4zm-14.62 4.2l8.83-4.54-8.22-5.56z" stroke="#3a414a" stroke-width=".05" fill="#3a414a"/><use xlink:href="#l" transform="matrix(1,0,0,1,2089.963782111883,911.2181087010675) translate(0 21.333333333333336)"/><path d="M2272.4 556.7a6 6 0 0 1 6-6h241.34a6 6 0 0 1 6 6v328a6 6 0 0 1-6 6H2278.4a6 6 0 0 1-6-6z" stroke="#3a414a" stroke-width="3" fill="#c3f7c8"/><use xlink:href="#a" transform="matrix(1,0,0,1,2285.0719646698226,567.7039195243506) translate(72.64722222222224 20.8)"/><use xlink:href="#m" transform="matrix(1,0,0,1,2285.0719646698226,567.7039195243506) translate(141.90833333333333 20.8)"/><path d="M2729.82 672.18h-26.7l-3.6.28-3.42.83-3.27 1.34-3 1.85-2.7 2.28-2.3 2.7-1.84 3-1.36 3.26-.83 3.44-.27 3.58v2l-.3 3.93-.94 3.88-1.54 3.7-2.1 3.4-2.6 3.04-3.03 2.6-3.4 2.1-3.7 1.52-3.9.93-3.9.3H2479v-2.94h176l3.58-.28 3.44-.83 3.26-1.35 3-1.85 2.7-2.3 2.3-2.68 1.84-3 1.36-3.28.82-3.43.28-3.58v-2l.3-3.93.94-3.9 1.53-3.68 2.1-3.4 2.6-3.05 3.03-2.6 3.4-2.1 3.7-1.53 3.9-.93 3.92-.3h26.82zm139.68 0h-102.65v-2.95h102.65z" stroke="#3a414a" stroke-width=".05" fill="#3a414a"/><path d="M2479.04 722.18h-1.53v-2.95h1.54z" fill="#3a414a"/><path stroke="#3a414a" stroke-width=".05" fill="#3a414a"/><path d="M2877.66 670.7l-12.9 7.64v-15.27z" fill="#3a414a"/><path d="M2880.56 670.7l-17.28 10.23v-20.45zm-14.33 5.05l8.53-5.05-8.53-5.05z" stroke="#3a414a" stroke-width=".05" fill="#3a414a"/><use xlink:href="#e" transform="matrix(1,0,0,1,2729.816153620128,654.7039195243506) translate(0 21.333333333333336)"/><path d="M2659.04 719.54l3.9.93 3.68 1.53 3.4 2.1 3.05 2.6 2.6 3.03 2.1 3.4 1.52 3.7.92 3.9.3 3.92v2l.3 3.58.82 3.43 1.35 3.27 1.84 3 2.3 2.7 2.68 2.3 3 1.84 3.28 1.35 3.43.83 3.6.28h39.9v2.95H2703l-3.93-.3-3.9-.94-3.68-1.53-3.42-2.08-3.04-2.6-2.6-3.04-2.1-3.4-1.52-3.7-.93-3.9-.32-3.92v-2l-.28-3.58-.82-3.43-1.36-3.27-1.84-3-2.3-2.7-2.68-2.3-3.02-1.84-3.26-1.35-3.44-.84-3.58-.28h-176v-2.95h176.12zm210.46 49.7v2.94h-89.44v-2.95z" stroke="#3a414a" stroke-width=".05" fill="#3a414a"/><path d="M2479.04 722.18h-1.53v-2.95h1.54z" fill="#3a414a"/><path stroke="#3a414a" stroke-width=".05" fill="#3a414a"/><path d="M2877.66 770.7l-12.9 7.64v-15.27z" fill="#3a414a"/><path d="M2880.56 770.7l-17.28 10.23v-20.45zm-14.33 5.05l8.53-5.05-8.53-5.05z" stroke="#3a414a" stroke-width=".05" fill="#3a414a"/><use xlink:href="#e" transform="matrix(1,0,0,1,2743.0222465455136,754.7039195243506) translate(0 21.333333333333336)"/><path d="M2883.57 675.8a9.57 9.57 0 0 1 0-10.18l19.96-31.83a10.84 10.84 0 0 1 9.2-5.1h40.66a10.84 10.84 0 0 1 9.17 5.1l19.96 31.82a9.57 9.57 0 0 1 0 10.17l-19.96 31.82a10.84 10.84 0 0 1-9.18 5.08h-40.68a10.84 10.84 0 0 1-9.2-5.08z" stroke="#3a414a" stroke-width="3" fill="#9391ff"/><use xlink:href="#c" transform="matrix(1,0,0,1,2885.652898433335,632.9039195243506) translate(13.560555555555561 42.175)"/><use xlink:href="#m" transform="matrix(1,0,0,1,2885.652898433335,632.9039195243506) translate(67.005 42.175)"/><path d="M2883.57 775.8a9.57 9.57 0 0 1 0-10.18l19.96-31.83a10.84 10.84 0 0 1 9.2-5.1h40.66a10.84 10.84 0 0 1 9.17 5.1l19.96 31.82a9.57 9.57 0 0 1 0 10.17l-19.96 31.82a10.84 10.84 0 0 1-9.18 5.08h-40.68a10.84 10.84 0 0 1-9.2-5.08z" stroke="#3a414a" stroke-width="3" fill="#9391ff"/><use xlink:href="#c" transform="matrix(1,0,0,1,2885.652898433335,732.9039195243506) translate(13.560555555555561 42.175)"/><use xlink:href="#f" transform="matrix(1,0,0,1,2885.652898433335,732.9039195243506) translate(67.005 42.175)"/><path d="M2322.14 691.03a6 6 0 0 1 6-6H2470a6 6 0 0 1 6 6v59.34a6 6 0 0 1-6 6h-141.86a6 6 0 0 1-6-6z" stroke="#3a414a" stroke-width="3" fill="#ffdda6"/><use xlink:href="#d" transform="matrix(1,0,0,1,2329.831429574438,688.6014896164902) translate(5.294444444444451 37.05)"/><path d="M2602.47 309.8v408.4M2602.47 309.86v-2.56M2602.47 718.14v2.56" stroke="#e81313" stroke-width="5" fill="none"/><path d="M2571 309.8v404.9c-3.3 0-6 2.7-6 6 0 3.32 2.7 6 6 6v404.9M2571 309.86v-2.56M2571 1131.55v2.56" stroke="#635dff" stroke-width="5" fill="none"/><path d="M2632.6 1131.6V723.2M2632.6 1131.55v2.56M2632.6 723.27v-2.57" stroke="#82755b" stroke-width="5" fill="none"/><path d="M2208.74 40.1a6 6 0 0 1 6-6h411.96a6 6 0 0 1 6 6v35.33a6 6 0 0 1-6 6h-411.96a6 6 0 0 1-6-6z" fill="none"/><g><use xlink:href="#n" transform="matrix(1,0,0,1,2213.737531817374,39.091149176239185) translate(0 25.22222222222222)"/><use xlink:href="#o" transform="matrix(1,0,0,1,2213.737531817374,39.091149176239185) translate(122.54320987654322 25.22222222222222)"/><use xlink:href="#p" transform="matrix(1,0,0,1,2213.737531817374,39.091149176239185) translate(215.61728395061732 25.22222222222222)"/><use xlink:href="#q" transform="matrix(1,0,0,1,2213.737531817374,39.091149176239185) translate(315.6913580246914 25.22222222222222)"/></g><defs><path d="M190 0L58-211 59 0H30v-248h39L202-35l-2-213h31V0h-41" id="r"/><path d="M100-194c62-1 85 37 85 99 1 63-27 99-86 99S16-35 15-95c0-66 28-99 85-99zM99-20c44 1 53-31 53-75 0-43-8-75-51-75s-53 32-53 75 10 74 51 75" id="s"/><path d="M85-194c31 0 48 13 60 33l-1-100h32l1 261h-30c-2-10 0-23-3-31C134-8 116 4 85 4 32 4 16-35 15-94c0-66 23-100 70-100zm9 24c-40 0-46 34-46 75 0 40 6 74 45 74 42 0 51-32 51-76 0-42-9-74-50-73" id="t"/><path d="M100-194c63 0 86 42 84 106H49c0 40 14 67 53 68 26 1 43-12 49-29l28 8c-11 28-37 45-77 45C44 4 14-33 15-96c1-61 26-98 85-98zm52 81c6-60-76-77-97-28-3 7-6 17-6 28h103" id="u"/><g id="a"><use transform="matrix(0.07222222222222222,0,0,0.07222222222222222,0,0)" xlink:href="#r"/><use transform="matrix(0.07222222222222222,0,0,0.07222222222222222,18.705555555555552,0)" xlink:href="#s"/><use transform="matrix(0.07222222222222222,0,0,0.07222222222222222,33.14999999999999,0)" xlink:href="#t"/><use transform="matrix(0.07222222222222222,0,0,0.07222222222222222,47.594444444444434,0)" xlink:href="#u"/></g><path d="M27 0v-27h64v-190l-56 39v-29l58-41h29v221h61V0H27" id="v"/><use transform="matrix(0.07222222222222222,0,0,0.07222222222222222,0,0)" xlink:href="#v" id="b"/><path d="M30-248c87 1 191-15 191 75 0 78-77 80-158 76V0H30v-248zm33 125c57 0 124 11 124-50 0-59-68-47-124-48v98" id="w"/><g id="c"><use transform="matrix(0.07222222222222222,0,0,0.07222222222222222,0,0)" xlink:href="#w"/><use transform="matrix(0.07222222222222222,0,0,0.07222222222222222,17.333333333333332,0)" xlink:href="#s"/><use transform="matrix(0.07222222222222222,0,0,0.07222222222222222,31.777777777777775,0)" xlink:href="#t"/></g><path d="M143 0L79-87 56-68V0H24v-261h32v163l83-92h37l-77 82L181 0h-38" id="x"/><path d="M84 4C-5 8 30-112 23-190h32v120c0 31 7 50 39 49 72-2 45-101 50-169h31l1 190h-30c-1-10 1-25-2-33-11 22-28 36-60 37" id="y"/><path d="M115-194c53 0 69 39 70 98 0 66-23 100-70 100C84 3 66-7 56-30L54 0H23l1-261h32v101c10-23 28-34 59-34zm-8 174c40 0 45-34 45-75 0-40-5-75-45-74-42 0-51 32-51 76 0 43 10 73 51 73" id="z"/><path d="M16-82v-28h88v28H16" id="A"/><path d="M115-194c55 1 70 41 70 98S169 2 115 4C84 4 66-9 55-30l1 105H24l-1-265h31l2 30c10-21 28-34 59-34zm-8 174c40 0 45-34 45-75s-6-73-45-74c-42 0-51 32-51 76 0 43 10 73 51 73" id="B"/><path d="M114-163C36-179 61-72 57 0H25l-1-190h30c1 12-1 29 2 39 6-27 23-49 58-41v29" id="C"/><path d="M141 0L90-78 38 0H4l68-98-65-92h35l48 74 47-74h35l-64 92 68 98h-35" id="D"/><path d="M179-190L93 31C79 59 56 82 12 73V49c39 6 53-20 64-50L1-190h34L92-34l54-156h33" id="E"/><g id="d"><use transform="matrix(0.07222222222222222,0,0,0.07222222222222222,0,0)" xlink:href="#x"/><use transform="matrix(0.07222222222222222,0,0,0.07222222222222222,12.999999999999998,0)" xlink:href="#y"/><use transform="matrix(0.07222222222222222,0,0,0.07222222222222222,27.444444444444443,0)" xlink:href="#z"/><use transform="matrix(0.07222222222222222,0,0,0.07222222222222222,41.888888888888886,0)" xlink:href="#u"/><use transform="matrix(0.07222222222222222,0,0,0.07222222222222222,56.33333333333333,0)" xlink:href="#A"/><use transform="matrix(0.07222222222222222,0,0,0.07222222222222222,64.92777777777778,0)" xlink:href="#B"/><use transform="matrix(0.07222222222222222,0,0,0.07222222222222222,79.37222222222222,0)" xlink:href="#C"/><use transform="matrix(0.07222222222222222,0,0,0.07222222222222222,87.96666666666667,0)" xlink:href="#s"/><use transform="matrix(0.07222222222222222,0,0,0.07222222222222222,102.41111111111111,0)" xlink:href="#D"/><use transform="matrix(0.07222222222222222,0,0,0.07222222222222222,115.41111111111111,0)" xlink:href="#E"/></g><path fill="#333" d="M23 0v-37h61v-169l-59 37v-38l62-41h46v211h57V0H23" id="F"/><path fill="#333" d="M4 7l51-268h42L46 7H4" id="G"/><path fill="#333" d="M115-159c48 0 72 30 72 78 0 54-30 85-83 85-64 0-91-50-91-122 0-98 58-163 141-120 15 8 21 24 27 44l-47 6c-5-31-48-31-61-4-7 14-11 33-11 60 9-17 28-27 53-27zM102-35c24 0 36-20 36-45s-11-43-37-43c-23 0-36 14-36 38 0 27 11 50 37 50" id="H"/><g id="e"><use transform="matrix(0.07407407407407408,0,0,0.07407407407407408,0,0)" xlink:href="#F"/><use transform="matrix(0.07407407407407408,0,0,0.07407407407407408,14.814814814814817,0)" xlink:href="#G"/><use transform="matrix(0.07407407407407408,0,0,0.07407407407407408,22.222222222222225,0)" xlink:href="#H"/></g><path d="M126-127c33 6 58 20 58 59 0 88-139 92-164 29-3-8-5-16-6-25l32-3c6 27 21 44 54 44 32 0 52-15 52-46 0-38-36-46-79-43v-28c39 1 72-4 72-42 0-27-17-43-46-43-28 0-47 15-49 41l-32-3c6-42 35-63 81-64 48-1 79 21 79 65 0 36-21 52-52 59" id="I"/><use transform="matrix(0.07222222222222222,0,0,0.07222222222222222,0,0)" xlink:href="#I" id="f"/><path d="M155-56V0h-30v-56H8v-25l114-167h33v167h35v25h-35zm-30-156c-27 46-58 90-88 131h88v-131" id="J"/><use transform="matrix(0.07222222222222222,0,0,0.07222222222222222,0,0)" xlink:href="#J" id="g"/><path d="M110-160c48 1 74 30 74 79 0 53-28 85-80 85-65 0-83-55-86-122-5-90 50-162 133-122 14 7 22 21 27 39l-31 6c-5-40-67-38-82-6-9 19-15 44-15 74 11-20 30-34 60-33zm-7 138c34 0 49-23 49-58s-16-56-50-56c-29 0-50 16-49 49 1 36 15 65 50 65" id="K"/><use transform="matrix(0.07222222222222222,0,0,0.07222222222222222,0,0)" xlink:href="#K" id="h"/><path d="M54-142c48-35 137-8 131 61C196 18 31 33 14-55l32-4c7 23 22 37 52 37 35-1 51-22 54-58 4-55-73-65-99-34H22l8-134h141v27H59" id="L"/><use transform="matrix(0.07222222222222222,0,0,0.07222222222222222,0,0)" xlink:href="#L" id="i"/><path d="M30 0v-248h33v221h125V0H30" id="M"/><path d="M141-36C126-15 110 5 73 4 37 3 15-17 15-53c-1-64 63-63 125-63 3-35-9-54-41-54-24 1-41 7-42 31l-33-3c5-37 33-52 76-52 45 0 72 20 72 64v82c-1 20 7 32 28 27v20c-31 9-61-2-59-35zM48-53c0 20 12 33 32 33 41-3 63-29 60-74-43 2-92-5-92 41" id="N"/><g id="j"><use transform="matrix(0.07222222222222222,0,0,0.07222222222222222,0,0)" xlink:href="#M"/><use transform="matrix(0.07222222222222222,0,0,0.07222222222222222,14.444444444444443,0)" xlink:href="#s"/><use transform="matrix(0.07222222222222222,0,0,0.07222222222222222,28.888888888888886,0)" xlink:href="#N"/><use transform="matrix(0.07222222222222222,0,0,0.07222222222222222,43.33333333333333,0)" xlink:href="#t"/></g><path d="M160-131c35 5 61 23 61 61C221 17 115-2 30 0v-248c76 3 177-17 177 60 0 33-19 50-47 57zm-97-11c50-1 110 9 110-42 0-47-63-36-110-37v79zm0 115c55-2 124 14 124-45 0-56-70-42-124-44v89" id="O"/><path d="M24 0v-261h32V0H24" id="P"/><path d="M117-194c89-4 53 116 60 194h-32v-121c0-31-8-49-39-48C34-167 62-67 57 0H25l-1-190h30c1 10-1 24 2 32 11-22 29-35 61-36" id="Q"/><path d="M96-169c-40 0-48 33-48 73s9 75 48 75c24 0 41-14 43-38l32 2c-6 37-31 61-74 61-59 0-76-41-82-99-10-93 101-131 147-64 4 7 5 14 7 22l-32 3c-4-21-16-35-41-35" id="R"/><g id="k"><use transform="matrix(0.07222222222222222,0,0,0.07222222222222222,0,0)" xlink:href="#O"/><use transform="matrix(0.07222222222222222,0,0,0.07222222222222222,17.333333333333332,0)" xlink:href="#N"/><use transform="matrix(0.07222222222222222,0,0,0.07222222222222222,31.777777777777775,0)" xlink:href="#P"/><use transform="matrix(0.07222222222222222,0,0,0.07222222222222222,37.48333333333333,0)" xlink:href="#N"/><use transform="matrix(0.07222222222222222,0,0,0.07222222222222222,51.92777777777777,0)" xlink:href="#Q"/><use transform="matrix(0.07222222222222222,0,0,0.07222222222222222,66.3722222222222,0)" xlink:href="#R"/><use transform="matrix(0.07222222222222222,0,0,0.07222222222222222,79.37222222222219,0)" xlink:href="#u"/><use transform="matrix(0.07222222222222222,0,0,0.07222222222222222,93.81666666666663,0)" xlink:href="#C"/></g><path fill="#333" d="M128-127c34 4 56 21 59 58 7 91-148 94-172 28-4-9-6-17-7-26l51-5c1 24 16 35 40 36 23 0 39-12 38-36-1-31-31-36-65-34v-40c32 2 59-3 59-33 0-20-13-33-34-33s-33 13-35 32l-50-3c6-44 37-68 86-68 50 0 83 20 83 66 0 35-22 52-53 58" id="S"/><g id="l"><use transform="matrix(0.07407407407407408,0,0,0.07407407407407408,0,0)" xlink:href="#F"/><use transform="matrix(0.07407407407407408,0,0,0.07407407407407408,14.814814814814817,0)" xlink:href="#G"/><use transform="matrix(0.07407407407407408,0,0,0.07407407407407408,22.222222222222225,0)" xlink:href="#S"/></g><path d="M101-251c82-7 93 87 43 132L82-64C71-53 59-42 53-27h129V0H18c2-99 128-94 128-182 0-28-16-43-45-43s-46 15-49 41l-32-3c6-41 34-60 81-64" id="T"/><use transform="matrix(0.07222222222222222,0,0,0.07222222222222222,0,0)" xlink:href="#T" id="m"/><path d="M30 0v-248h187v28H63v79h144v27H63v87h162V0H30" id="U"/><path d="M59-47c-2 24 18 29 38 22v24C64 9 27 4 27-40v-127H5v-23h24l9-43h21v43h35v23H59v120" id="V"/><g id="n"><use transform="matrix(0.08641975308641976,0,0,0.08641975308641976,0,0)" xlink:href="#U"/><use transform="matrix(0.08641975308641976,0,0,0.08641975308641976,20.740740740740744,0)" xlink:href="#D"/><use transform="matrix(0.08641975308641976,0,0,0.08641975308641976,36.296296296296305,0)" xlink:href="#V"/><use transform="matrix(0.08641975308641976,0,0,0.08641975308641976,44.93827160493828,0)" xlink:href="#u"/><use transform="matrix(0.08641975308641976,0,0,0.08641975308641976,62.22222222222223,0)" xlink:href="#C"/><use transform="matrix(0.08641975308641976,0,0,0.08641975308641976,72.50617283950618,0)" xlink:href="#Q"/><use transform="matrix(0.08641975308641976,0,0,0.08641975308641976,89.79012345679013,0)" xlink:href="#N"/><use transform="matrix(0.08641975308641976,0,0,0.08641975308641976,107.07407407407409,0)" xlink:href="#P"/></g><path d="M127-220V0H93v-220H8v-28h204v28h-85" id="W"/><path d="M101-234c-31-9-42 10-38 44h38v23H63V0H32v-167H5v-23h27c-7-52 17-82 69-68v24" id="X"/><path d="M24-231v-30h32v30H24zM24 0v-190h32V0H24" id="Y"/><g id="o"><use transform="matrix(0.08641975308641976,0,0,0.08641975308641976,0,0)" xlink:href="#W"/><use transform="matrix(0.08641975308641976,0,0,0.08641975308641976,17.802469135802472,0)" xlink:href="#C"/><use transform="matrix(0.08641975308641976,0,0,0.08641975308641976,28.08641975308642,0)" xlink:href="#N"/><use transform="matrix(0.08641975308641976,0,0,0.08641975308641976,45.37037037037039,0)" xlink:href="#X"/><use transform="matrix(0.08641975308641976,0,0,0.08641975308641976,53.407407407407426,0)" xlink:href="#X"/><use transform="matrix(0.08641975308641976,0,0,0.08641975308641976,62.04938271604939,0)" xlink:href="#Y"/><use transform="matrix(0.08641975308641976,0,0,0.08641975308641976,68.87654320987656,0)" xlink:href="#R"/></g><path d="M33-154v-36h34v36H33zM33 0v-36h34V0H33" id="Z"/><g id="p"><use transform="matrix(0.08641975308641976,0,0,0.08641975308641976,0,0)" xlink:href="#w"/><use transform="matrix(0.08641975308641976,0,0,0.08641975308641976,20.740740740740744,0)" xlink:href="#s"/><use transform="matrix(0.08641975308641976,0,0,0.08641975308641976,38.0246913580247,0)" xlink:href="#P"/><use transform="matrix(0.08641975308641976,0,0,0.08641975308641976,44.85185185185187,0)" xlink:href="#Y"/><use transform="matrix(0.08641975308641976,0,0,0.08641975308641976,51.67901234567903,0)" xlink:href="#R"/><use transform="matrix(0.08641975308641976,0,0,0.08641975308641976,67.23456790123458,0)" xlink:href="#E"/><use transform="matrix(0.08641975308641976,0,0,0.08641975308641976,82.79012345679014,0)" xlink:href="#Z"/></g><path d="M212-179c-10-28-35-45-73-45-59 0-87 40-87 99 0 60 29 101 89 101 43 0 62-24 78-52l27 14C228-24 195 4 139 4 59 4 22-46 18-125c-6-104 99-153 187-111 19 9 31 26 39 46" id="aa"/><path d="M135-143c-3-34-86-38-87 0 15 53 115 12 119 90S17 21 10-45l28-5c4 36 97 45 98 0-10-56-113-15-118-90-4-57 82-63 122-42 12 7 21 19 24 35" id="ab"/><g id="q"><use transform="matrix(0.08641975308641976,0,0,0.08641975308641976,0,0)" xlink:href="#aa"/><use transform="matrix(0.08641975308641976,0,0,0.08641975308641976,22.38271604938272,0)" xlink:href="#P"/><use transform="matrix(0.08641975308641976,0,0,0.08641975308641976,29.20987654320988,0)" xlink:href="#y"/><use transform="matrix(0.08641975308641976,0,0,0.08641975308641976,46.49382716049383,0)" xlink:href="#ab"/><use transform="matrix(0.08641975308641976,0,0,0.08641975308641976,62.04938271604939,0)" xlink:href="#V"/><use transform="matrix(0.08641975308641976,0,0,0.08641975308641976,70.69135802469137,0)" xlink:href="#u"/><use transform="matrix(0.08641975308641976,0,0,0.08641975308641976,87.97530864197532,0)" xlink:href="#C"/></g></defs></g></svg>